<svg width="80" height="27" viewBox="0 0 80 27" fill="none" xmlns="http://www.w3.org/2000/svg">
<path d="M8.95117 9.86133C8.95117 10.166 8.89844 10.4492 8.79297 10.7109C8.6875 10.9727 8.53906 11.1992 8.34766 11.3906C8.16016 11.582 7.93555 11.7324 7.67383 11.8418C7.41211 11.9473 7.12695 12 6.81836 12H1.23438V10.4766H6.81836C7.00586 10.4766 7.15234 10.4238 7.25781 10.3184C7.36328 10.209 7.41602 10.0566 7.41602 9.86133V3.59766H8.95117V9.86133ZM19.5156 8.60156C19.5156 9.11328 19.4277 9.58398 19.252 10.0137C19.0762 10.4434 18.832 10.8145 18.5195 11.127C18.207 11.4395 17.8359 11.6836 17.4062 11.8594C16.9805 12.0312 16.5156 12.1172 16.0117 12.1172H13.9492C13.4453 12.1172 12.9785 12.0312 12.5488 11.8594C12.1191 11.6836 11.748 11.4395 11.4355 11.127C11.123 10.8145 10.877 10.4434 10.6973 10.0137C10.5215 9.58398 10.4336 9.11328 10.4336 8.60156V6.99609C10.4336 6.48828 10.5215 6.01953 10.6973 5.58984C10.877 5.15625 11.123 4.78516 11.4355 4.47656C11.748 4.16406 12.1191 3.91992 12.5488 3.74414C12.9785 3.56836 13.4453 3.48047 13.9492 3.48047H16.0117C16.5156 3.48047 16.9805 3.56836 17.4062 3.74414C17.8359 3.91992 18.207 4.16406 18.5195 4.47656C18.832 4.78516 19.0762 5.15625 19.252 5.58984C19.4277 6.01953 19.5156 6.48828 19.5156 6.99609V8.60156ZM17.9922 6.99609C17.9922 6.69531 17.9434 6.42383 17.8457 6.18164C17.752 5.93555 17.6172 5.72656 17.4414 5.55469C17.2695 5.37891 17.0605 5.24414 16.8145 5.15039C16.5723 5.05273 16.3047 5.00391 16.0117 5.00391H13.9492C13.6523 5.00391 13.3809 5.05273 13.1348 5.15039C12.8926 5.24414 12.6836 5.37891 12.5078 5.55469C12.332 5.72656 12.1953 5.93555 12.0977 6.18164C12.0039 6.42383 11.957 6.69531 11.957 6.99609V8.60156C11.957 8.90234 12.0039 9.17578 12.0977 9.42188C12.1953 9.66406 12.332 9.87305 12.5078 10.0488C12.6836 10.2207 12.8926 10.3555 13.1348 10.4531C13.3809 10.5469 13.6523 10.5938 13.9492 10.5938H16C16.2969 10.5938 16.5664 10.5469 16.8086 10.4531C17.0547 10.3555 17.2656 10.2207 17.4414 10.0488C17.6172 9.87305 17.752 9.66406 17.8457 9.42188C17.9434 9.17578 17.9922 8.90234 17.9922 8.60156V6.99609ZM29.418 11.3496C29.418 11.459 29.3965 11.5605 29.3535 11.6543C29.3145 11.748 29.2598 11.8301 29.1895 11.9004C29.123 11.9668 29.043 12.0195 28.9492 12.0586C28.8555 12.0977 28.7559 12.1172 28.6504 12.1172C28.5566 12.1172 28.4609 12.0996 28.3633 12.0645C28.2695 12.0293 28.1855 11.9727 28.1113 11.8945L22.5449 6.08203V12H21.0215V4.24805C21.0215 4.0918 21.0645 3.95117 21.1504 3.82617C21.2402 3.69727 21.3535 3.60156 21.4902 3.53906C21.6348 3.48047 21.7832 3.4668 21.9355 3.49805C22.0879 3.52539 22.2188 3.5957 22.3281 3.70898L27.8945 9.51562V3.59766H29.418V11.3496ZM39.4375 12H37.9141V9.9375H32.5586V12H31.0352V7.79883C31.0352 7.18555 31.1406 6.62109 31.3516 6.10547C31.5625 5.58984 31.8555 5.14648 32.2305 4.77539C32.6055 4.4043 33.0488 4.11523 33.5605 3.9082C34.0723 3.70117 34.6309 3.59766 35.2363 3.59766H38.6699C38.7754 3.59766 38.875 3.61719 38.9688 3.65625C39.0625 3.69531 39.1445 3.75 39.2148 3.82031C39.2852 3.89062 39.3398 3.97266 39.3789 4.06641C39.418 4.16016 39.4375 4.25977 39.4375 4.36523V12ZM32.5586 8.41406H37.9141V5.12109H35.2363C35.1895 5.12109 35.0898 5.12891 34.9375 5.14453C34.7891 5.15625 34.6152 5.18945 34.416 5.24414C34.2207 5.29883 34.0137 5.38281 33.7949 5.49609C33.5762 5.60938 33.375 5.76562 33.1914 5.96484C33.0078 6.16406 32.8555 6.41406 32.7344 6.71484C32.6172 7.01172 32.5586 7.37305 32.5586 7.79883V8.41406ZM48.8066 5.12109H45.4492V12H43.9258V5.12109H40.5625V3.59766H48.8066V5.12109ZM51.4668 7.03125H56.8164V3.59766H58.3398V12H56.8164V8.56641H51.4668V12H49.9434V3.59766H51.4668V7.03125ZM68.3711 12H66.8477V9.9375H61.4922V12H59.9688V7.79883C59.9688 7.18555 60.0742 6.62109 60.2852 6.10547C60.4961 5.58984 60.7891 5.14648 61.1641 4.77539C61.5391 4.4043 61.9824 4.11523 62.4941 3.9082C63.0059 3.70117 63.5645 3.59766 64.1699 3.59766H67.6035C67.709 3.59766 67.8086 3.61719 67.9023 3.65625C67.9961 3.69531 68.0781 3.75 68.1484 3.82031C68.2188 3.89062 68.2734 3.97266 68.3125 4.06641C68.3516 4.16016 68.3711 4.25977 68.3711 4.36523V12ZM61.4922 8.41406H66.8477V5.12109H64.1699C64.123 5.12109 64.0234 5.12891 63.8711 5.14453C63.7227 5.15625 63.5488 5.18945 63.3496 5.24414C63.1543 5.29883 62.9473 5.38281 62.7285 5.49609C62.5098 5.60938 62.3086 5.76562 62.125 5.96484C61.9414 6.16406 61.7891 6.41406 61.668 6.71484C61.5508 7.01172 61.4922 7.37305 61.4922 7.79883V8.41406ZM78.543 11.3496C78.543 11.459 78.5215 11.5605 78.4785 11.6543C78.4395 11.748 78.3848 11.8301 78.3145 11.9004C78.248 11.9668 78.168 12.0195 78.0742 12.0586C77.9805 12.0977 77.8809 12.1172 77.7754 12.1172C77.6816 12.1172 77.5859 12.0996 77.4883 12.0645C77.3945 12.0293 77.3105 11.9727 77.2363 11.8945L71.6699 6.08203V12H70.1465V4.24805C70.1465 4.0918 70.1895 3.95117 70.2754 3.82617C70.3652 3.69727 70.4785 3.60156 70.6152 3.53906C70.7598 3.48047 70.9082 3.4668 71.0605 3.49805C71.2129 3.52539 71.3438 3.5957 71.4531 3.70898L77.0195 9.51562V3.59766H78.543V11.3496Z" fill="black"/>
<path d="M8.95117 9.86133C8.95117 10.166 8.89844 10.4492 8.79297 10.7109C8.6875 10.9727 8.53906 11.1992 8.34766 11.3906C8.16016 11.582 7.93555 11.7324 7.67383 11.8418C7.41211 11.9473 7.12695 12 6.81836 12H1.23438V10.4766H6.81836C7.00586 10.4766 7.15234 10.4238 7.25781 10.3184C7.36328 10.209 7.41602 10.0566 7.41602 9.86133V3.59766H8.95117V9.86133ZM19.5156 8.60156C19.5156 9.11328 19.4277 9.58398 19.252 10.0137C19.0762 10.4434 18.832 10.8145 18.5195 11.127C18.207 11.4395 17.8359 11.6836 17.4062 11.8594C16.9805 12.0312 16.5156 12.1172 16.0117 12.1172H13.9492C13.4453 12.1172 12.9785 12.0312 12.5488 11.8594C12.1191 11.6836 11.748 11.4395 11.4355 11.127C11.123 10.8145 10.877 10.4434 10.6973 10.0137C10.5215 9.58398 10.4336 9.11328 10.4336 8.60156V6.99609C10.4336 6.48828 10.5215 6.01953 10.6973 5.58984C10.877 5.15625 11.123 4.78516 11.4355 4.47656C11.748 4.16406 12.1191 3.91992 12.5488 3.74414C12.9785 3.56836 13.4453 3.48047 13.9492 3.48047H16.0117C16.5156 3.48047 16.9805 3.56836 17.4062 3.74414C17.8359 3.91992 18.207 4.16406 18.5195 4.47656C18.832 4.78516 19.0762 5.15625 19.252 5.58984C19.4277 6.01953 19.5156 6.48828 19.5156 6.99609V8.60156ZM17.9922 6.99609C17.9922 6.69531 17.9434 6.42383 17.8457 6.18164C17.752 5.93555 17.6172 5.72656 17.4414 5.55469C17.2695 5.37891 17.0605 5.24414 16.8145 5.15039C16.5723 5.05273 16.3047 5.00391 16.0117 5.00391H13.9492C13.6523 5.00391 13.3809 5.05273 13.1348 5.15039C12.8926 5.24414 12.6836 5.37891 12.5078 5.55469C12.332 5.72656 12.1953 5.93555 12.0977 6.18164C12.0039 6.42383 11.957 6.69531 11.957 6.99609V8.60156C11.957 8.90234 12.0039 9.17578 12.0977 9.42188C12.1953 9.66406 12.332 9.87305 12.5078 10.0488C12.6836 10.2207 12.8926 10.3555 13.1348 10.4531C13.3809 10.5469 13.6523 10.5938 13.9492 10.5938H16C16.2969 10.5938 16.5664 10.5469 16.8086 10.4531C17.0547 10.3555 17.2656 10.2207 17.4414 10.0488C17.6172 9.87305 17.752 9.66406 17.8457 9.42188C17.9434 9.17578 17.9922 8.90234 17.9922 8.60156V6.99609ZM29.418 11.3496C29.418 11.459 29.3965 11.5605 29.3535 11.6543C29.3145 11.748 29.2598 11.8301 29.1895 11.9004C29.123 11.9668 29.043 12.0195 28.9492 12.0586C28.8555 12.0977 28.7559 12.1172 28.6504 12.1172C28.5566 12.1172 28.4609 12.0996 28.3633 12.0645C28.2695 12.0293 28.1855 11.9727 28.1113 11.8945L22.5449 6.08203V12H21.0215V4.24805C21.0215 4.0918 21.0645 3.95117 21.1504 3.82617C21.2402 3.69727 21.3535 3.60156 21.4902 3.53906C21.6348 3.48047 21.7832 3.4668 21.9355 3.49805C22.0879 3.52539 22.2188 3.5957 22.3281 3.70898L27.8945 9.51562V3.59766H29.418V11.3496ZM39.4375 12H37.9141V9.9375H32.5586V12H31.0352V7.79883C31.0352 7.18555 31.1406 6.62109 31.3516 6.10547C31.5625 5.58984 31.8555 5.14648 32.2305 4.77539C32.6055 4.4043 33.0488 4.11523 33.5605 3.9082C34.0723 3.70117 34.6309 3.59766 35.2363 3.59766H38.6699C38.7754 3.59766 38.875 3.61719 38.9688 3.65625C39.0625 3.69531 39.1445 3.75 39.2148 3.82031C39.2852 3.89062 39.3398 3.97266 39.3789 4.06641C39.418 4.16016 39.4375 4.25977 39.4375 4.36523V12ZM32.5586 8.41406H37.9141V5.12109H35.2363C35.1895 5.12109 35.0898 5.12891 34.9375 5.14453C34.7891 5.15625 34.6152 5.18945 34.416 5.24414C34.2207 5.29883 34.0137 5.38281 33.7949 5.49609C33.5762 5.60938 33.375 5.76562 33.1914 5.96484C33.0078 6.16406 32.8555 6.41406 32.7344 6.71484C32.6172 7.01172 32.5586 7.37305 32.5586 7.79883V8.41406ZM48.8066 5.12109H45.4492V12H43.9258V5.12109H40.5625V3.59766H48.8066V5.12109ZM51.4668 7.03125H56.8164V3.59766H58.3398V12H56.8164V8.56641H51.4668V12H49.9434V3.59766H51.4668V7.03125ZM68.3711 12H66.8477V9.9375H61.4922V12H59.9688V7.79883C59.9688 7.18555 60.0742 6.62109 60.2852 6.10547C60.4961 5.58984 60.7891 5.14648 61.1641 4.77539C61.5391 4.4043 61.9824 4.11523 62.4941 3.9082C63.0059 3.70117 63.5645 3.59766 64.1699 3.59766H67.6035C67.709 3.59766 67.8086 3.61719 67.9023 3.65625C67.9961 3.69531 68.0781 3.75 68.1484 3.82031C68.2188 3.89062 68.2734 3.97266 68.3125 4.06641C68.3516 4.16016 68.3711 4.25977 68.3711 4.36523V12ZM61.4922 8.41406H66.8477V5.12109H64.1699C64.123 5.12109 64.0234 5.12891 63.8711 5.14453C63.7227 5.15625 63.5488 5.18945 63.3496 5.24414C63.1543 5.29883 62.9473 5.38281 62.7285 5.49609C62.5098 5.60938 62.3086 5.76562 62.125 5.96484C61.9414 6.16406 61.7891 6.41406 61.668 6.71484C61.5508 7.01172 61.4922 7.37305 61.4922 7.79883V8.41406ZM78.543 11.3496C78.543 11.459 78.5215 11.5605 78.4785 11.6543C78.4395 11.748 78.3848 11.8301 78.3145 11.9004C78.248 11.9668 78.168 12.0195 78.0742 12.0586C77.9805 12.0977 77.8809 12.1172 77.7754 12.1172C77.6816 12.1172 77.5859 12.0996 77.4883 12.0645C77.3945 12.0293 77.3105 11.9727 77.2363 11.8945L71.6699 6.08203V12H70.1465V4.24805C70.1465 4.0918 70.1895 3.95117 70.2754 3.82617C70.3652 3.69727 70.4785 3.60156 70.6152 3.53906C70.7598 3.48047 70.9082 3.4668 71.0605 3.49805C71.2129 3.52539 71.3438 3.5957 71.4531 3.70898L77.0195 9.51562V3.59766H78.543V11.3496Z" fill="black"/>
<path d="M8.95117 9.86133C8.95117 10.166 8.89844 10.4492 8.79297 10.7109C8.6875 10.9727 8.53906 11.1992 8.34766 11.3906C8.16016 11.582 7.93555 11.7324 7.67383 11.8418C7.41211 11.9473 7.12695 12 6.81836 12H1.23438V10.4766H6.81836C7.00586 10.4766 7.15234 10.4238 7.25781 10.3184C7.36328 10.209 7.41602 10.0566 7.41602 9.86133V3.59766H8.95117V9.86133ZM19.5156 8.60156C19.5156 9.11328 19.4277 9.58398 19.252 10.0137C19.0762 10.4434 18.832 10.8145 18.5195 11.127C18.207 11.4395 17.8359 11.6836 17.4062 11.8594C16.9805 12.0312 16.5156 12.1172 16.0117 12.1172H13.9492C13.4453 12.1172 12.9785 12.0312 12.5488 11.8594C12.1191 11.6836 11.748 11.4395 11.4355 11.127C11.123 10.8145 10.877 10.4434 10.6973 10.0137C10.5215 9.58398 10.4336 9.11328 10.4336 8.60156V6.99609C10.4336 6.48828 10.5215 6.01953 10.6973 5.58984C10.877 5.15625 11.123 4.78516 11.4355 4.47656C11.748 4.16406 12.1191 3.91992 12.5488 3.74414C12.9785 3.56836 13.4453 3.48047 13.9492 3.48047H16.0117C16.5156 3.48047 16.9805 3.56836 17.4062 3.74414C17.8359 3.91992 18.207 4.16406 18.5195 4.47656C18.832 4.78516 19.0762 5.15625 19.252 5.58984C19.4277 6.01953 19.5156 6.48828 19.5156 6.99609V8.60156ZM17.9922 6.99609C17.9922 6.69531 17.9434 6.42383 17.8457 6.18164C17.752 5.93555 17.6172 5.72656 17.4414 5.55469C17.2695 5.37891 17.0605 5.24414 16.8145 5.15039C16.5723 5.05273 16.3047 5.00391 16.0117 5.00391H13.9492C13.6523 5.00391 13.3809 5.05273 13.1348 5.15039C12.8926 5.24414 12.6836 5.37891 12.5078 5.55469C12.332 5.72656 12.1953 5.93555 12.0977 6.18164C12.0039 6.42383 11.957 6.69531 11.957 6.99609V8.60156C11.957 8.90234 12.0039 9.17578 12.0977 9.42188C12.1953 9.66406 12.332 9.87305 12.5078 10.0488C12.6836 10.2207 12.8926 10.3555 13.1348 10.4531C13.3809 10.5469 13.6523 10.5938 13.9492 10.5938H16C16.2969 10.5938 16.5664 10.5469 16.8086 10.4531C17.0547 10.3555 17.2656 10.2207 17.4414 10.0488C17.6172 9.87305 17.752 9.66406 17.8457 9.42188C17.9434 9.17578 17.9922 8.90234 17.9922 8.60156V6.99609ZM29.418 11.3496C29.418 11.459 29.3965 11.5605 29.3535 11.6543C29.3145 11.748 29.2598 11.8301 29.1895 11.9004C29.123 11.9668 29.043 12.0195 28.9492 12.0586C28.8555 12.0977 28.7559 12.1172 28.6504 12.1172C28.5566 12.1172 28.4609 12.0996 28.3633 12.0645C28.2695 12.0293 28.1855 11.9727 28.1113 11.8945L22.5449 6.08203V12H21.0215V4.24805C21.0215 4.0918 21.0645 3.95117 21.1504 3.82617C21.2402 3.69727 21.3535 3.60156 21.4902 3.53906C21.6348 3.48047 21.7832 3.4668 21.9355 3.49805C22.0879 3.52539 22.2188 3.5957 22.3281 3.70898L27.8945 9.51562V3.59766H29.418V11.3496ZM39.4375 12H37.9141V9.9375H32.5586V12H31.0352V7.79883C31.0352 7.18555 31.1406 6.62109 31.3516 6.10547C31.5625 5.58984 31.8555 5.14648 32.2305 4.77539C32.6055 4.4043 33.0488 4.11523 33.5605 3.9082C34.0723 3.70117 34.6309 3.59766 35.2363 3.59766H38.6699C38.7754 3.59766 38.875 3.61719 38.9688 3.65625C39.0625 3.69531 39.1445 3.75 39.2148 3.82031C39.2852 3.89062 39.3398 3.97266 39.3789 4.06641C39.418 4.16016 39.4375 4.25977 39.4375 4.36523V12ZM32.5586 8.41406H37.9141V5.12109H35.2363C35.1895 5.12109 35.0898 5.12891 34.9375 5.14453C34.7891 5.15625 34.6152 5.18945 34.416 5.24414C34.2207 5.29883 34.0137 5.38281 33.7949 5.49609C33.5762 5.60938 33.375 5.76562 33.1914 5.96484C33.0078 6.16406 32.8555 6.41406 32.7344 6.71484C32.6172 7.01172 32.5586 7.37305 32.5586 7.79883V8.41406ZM48.8066 5.12109H45.4492V12H43.9258V5.12109H40.5625V3.59766H48.8066V5.12109ZM51.4668 7.03125H56.8164V3.59766H58.3398V12H56.8164V8.56641H51.4668V12H49.9434V3.59766H51.4668V7.03125ZM68.3711 12H66.8477V9.9375H61.4922V12H59.9688V7.79883C59.9688 7.18555 60.0742 6.62109 60.2852 6.10547C60.4961 5.58984 60.7891 5.14648 61.1641 4.77539C61.5391 4.4043 61.9824 4.11523 62.4941 3.9082C63.0059 3.70117 63.5645 3.59766 64.1699 3.59766H67.6035C67.709 3.59766 67.8086 3.61719 67.9023 3.65625C67.9961 3.69531 68.0781 3.75 68.1484 3.82031C68.2188 3.89062 68.2734 3.97266 68.3125 4.06641C68.3516 4.16016 68.3711 4.25977 68.3711 4.36523V12ZM61.4922 8.41406H66.8477V5.12109H64.1699C64.123 5.12109 64.0234 5.12891 63.8711 5.14453C63.7227 5.15625 63.5488 5.18945 63.3496 5.24414C63.1543 5.29883 62.9473 5.38281 62.7285 5.49609C62.5098 5.60938 62.3086 5.76562 62.125 5.96484C61.9414 6.16406 61.7891 6.41406 61.668 6.71484C61.5508 7.01172 61.4922 7.37305 61.4922 7.79883V8.41406ZM78.543 11.3496C78.543 11.459 78.5215 11.5605 78.4785 11.6543C78.4395 11.748 78.3848 11.8301 78.3145 11.9004C78.248 11.9668 78.168 12.0195 78.0742 12.0586C77.9805 12.0977 77.8809 12.1172 77.7754 12.1172C77.6816 12.1172 77.5859 12.0996 77.4883 12.0645C77.3945 12.0293 77.3105 11.9727 77.2363 11.8945L71.6699 6.08203V12H70.1465V4.24805C70.1465 4.0918 70.1895 3.95117 70.2754 3.82617C70.3652 3.69727 70.4785 3.60156 70.6152 3.53906C70.7598 3.48047 70.9082 3.4668 71.0605 3.49805C71.2129 3.52539 71.3438 3.5957 71.4531 3.70898L77.0195 9.51562V3.59766H78.543V11.3496Z" fill="white"/>
<path d="M9.26953 22.1543C9.26953 22.3418 9.23633 22.543 9.16992 22.7578C9.10742 22.9727 9.00195 23.1719 8.85352 23.3555C8.70898 23.5391 8.51953 23.6934 8.28516 23.8184C8.05078 23.9395 7.76367 24 7.42383 24H1.64062C1.53125 24 1.42969 23.9805 1.33594 23.9414C1.24219 23.9023 1.16016 23.8496 1.08984 23.7832C1.02344 23.7129 0.970703 23.6309 0.931641 23.5371C0.892578 23.4434 0.873047 23.3418 0.873047 23.2324V16.3652C0.873047 16.2598 0.892578 16.1602 0.931641 16.0664C0.970703 15.9727 1.02344 15.8906 1.08984 15.8203C1.16016 15.75 1.24219 15.6953 1.33594 15.6562C1.42969 15.6172 1.53125 15.5977 1.64062 15.5977H6.73828C6.92578 15.5977 7.12695 15.6309 7.3418 15.6973C7.55664 15.7637 7.75586 15.8711 7.93945 16.0195C8.12695 16.1641 8.28125 16.3535 8.40234 16.5879C8.52734 16.8223 8.58984 17.1094 8.58984 17.4492V17.7363C8.58984 18.0059 8.54492 18.2969 8.45508 18.6094C8.36523 18.918 8.2207 19.2109 8.02148 19.4883C8.19336 19.5938 8.35352 19.7207 8.50195 19.8691C8.6543 20.0176 8.78711 20.1895 8.90039 20.3848C9.01367 20.5801 9.10352 20.8008 9.16992 21.0469C9.23633 21.293 9.26953 21.5645 9.26953 21.8613V22.1543ZM7.74609 21.8613C7.74609 21.6621 7.71484 21.4844 7.65234 21.3281C7.58984 21.168 7.50195 21.0312 7.38867 20.918C7.27539 20.8047 7.13867 20.7188 6.97852 20.6602C6.81836 20.5977 6.63867 20.5664 6.43945 20.5664H3.00586V19.0312H5.75391C5.95312 19.0312 6.13281 19.002 6.29297 18.9434C6.45312 18.8809 6.58984 18.793 6.70312 18.6797C6.81641 18.5664 6.90234 18.4316 6.96094 18.2754C7.02344 18.1152 7.05469 17.9355 7.05469 17.7363V17.4492C7.05469 17.2305 6.94922 17.1211 6.73828 17.1211H2.39648V22.4766H7.42383C7.45117 22.4766 7.48438 22.4746 7.52344 22.4707C7.5625 22.4668 7.59766 22.4551 7.62891 22.4355C7.66016 22.416 7.6875 22.3828 7.71094 22.3359C7.73438 22.2891 7.74609 22.2246 7.74609 22.1426V21.8613ZM18.8438 24H17.3203V21.9375H11.9648V24H10.4414V19.7988C10.4414 19.1855 10.5469 18.6211 10.7578 18.1055C10.9688 17.5898 11.2617 17.1465 11.6367 16.7754C12.0117 16.4043 12.4551 16.1152 12.9668 15.9082C13.4785 15.7012 14.0371 15.5977 14.6426 15.5977H18.0762C18.1816 15.5977 18.2812 15.6172 18.375 15.6562C18.4688 15.6953 18.5508 15.75 18.6211 15.8203C18.6914 15.8906 18.7461 15.9727 18.7852 16.0664C18.8242 16.1602 18.8438 16.2598 18.8438 16.3652V24ZM11.9648 20.4141H17.3203V17.1211H14.6426C14.5957 17.1211 14.4961 17.1289 14.3438 17.1445C14.1953 17.1562 14.0215 17.1895 13.8223 17.2441C13.627 17.2988 13.4199 17.3828 13.2012 17.4961C12.9824 17.6094 12.7812 17.7656 12.5977 17.9648C12.4141 18.1641 12.2617 18.4141 12.1406 18.7148C12.0234 19.0117 11.9648 19.373 11.9648 19.7988V20.4141ZM28.1426 24H22.6465C22.5059 24 22.3535 23.9844 22.1895 23.9531C22.0293 23.918 21.8691 23.8652 21.709 23.7949C21.5527 23.7246 21.4023 23.6348 21.2578 23.5254C21.1133 23.4121 20.9844 23.2773 20.8711 23.1211C20.7617 22.9609 20.6738 22.7773 20.6074 22.5703C20.541 22.3594 20.5078 22.123 20.5078 21.8613V17.7363C20.5078 17.5957 20.5234 17.4453 20.5547 17.2852C20.5898 17.1211 20.6426 16.9609 20.7129 16.8047C20.7832 16.6445 20.875 16.4922 20.9883 16.3477C21.1016 16.2031 21.2363 16.0762 21.3926 15.9668C21.5527 15.8535 21.7363 15.7637 21.9434 15.6973C22.1504 15.6309 22.3848 15.5977 22.6465 15.5977H28.1426V17.1211H22.6465C22.4473 17.1211 22.2949 17.1738 22.1895 17.2793C22.084 17.3848 22.0312 17.541 22.0312 17.748V21.8613C22.0312 22.0566 22.084 22.209 22.1895 22.3184C22.2988 22.4238 22.4512 22.4766 22.6465 22.4766H28.1426V24ZM38.3906 24H36.2285L32.8008 20.5664H31.7285V19.0312H32.8008L36.2285 15.5977H38.3906L34.0723 19.7988L38.3906 24ZM31.1191 24H29.5957V15.5977H31.1191V24ZM47.0625 24H40.1133C40.0039 24 39.9023 23.9805 39.8086 23.9414C39.7148 23.9023 39.6328 23.8496 39.5625 23.7832C39.4961 23.7129 39.4434 23.6309 39.4043 23.5371C39.3652 23.4434 39.3457 23.3418 39.3457 23.2324V15.5977H40.8691V22.4766H47.0625V24ZM49.7168 24H48.1934V15.5977H49.7168V24ZM59.8945 23.3496C59.8945 23.459 59.873 23.5605 59.8301 23.6543C59.791 23.748 59.7363 23.8301 59.666 23.9004C59.5996 23.9668 59.5195 24.0195 59.4258 24.0586C59.332 24.0977 59.2324 24.1172 59.127 24.1172C59.0332 24.1172 58.9375 24.0996 58.8398 24.0645C58.7461 24.0293 58.6621 23.9727 58.5879 23.8945L53.0215 18.082V24H51.498V16.248C51.498 16.0918 51.541 15.9512 51.627 15.8262C51.7168 15.6973 51.8301 15.6016 51.9668 15.5391C52.1113 15.4805 52.2598 15.4668 52.4121 15.498C52.5645 15.5254 52.6953 15.5957 52.8047 15.709L58.3711 21.5156V15.5977H59.8945V23.3496Z" fill="white"/>
</svg>
