<svg width="15" height="15" viewBox="0 0 15 15" fill="none" xmlns="http://www.w3.org/2000/svg">
<path d="M10.907 4.17293C11.2251 3.85618 11.2251 3.33998 10.907 3.02323L9.73639 1.85174L9.73806 1.85341C9.42825 1.54336 8.89571 1.01041 8.14212 0.257906C7.7871 -0.0890166 7.21269 -0.0856646 6.86102 0.266286L0.266255 6.86116C0.18188 6.94503 0.114917 7.04477 0.069221 7.15465C0.0235253 7.26453 0 7.38236 0 7.50138C0 7.62039 0.0235253 7.73823 0.069221 7.8481C0.114917 7.95798 0.18188 8.05772 0.266255 8.14159L6.85934 14.7348C7.02933 14.9046 7.2597 15 7.4999 15C7.74009 15 7.97046 14.9046 8.14045 14.7348L10.9053 11.9695C11.2235 11.6527 11.2235 11.1365 10.9053 10.8198C10.7525 10.6676 10.5456 10.5821 10.3301 10.5821C10.1145 10.5821 9.90764 10.6676 9.75481 10.8198L7.6615 12.9181C7.57442 13.0052 7.43877 13.0052 7.35169 12.9181L2.08492 7.65221C1.99784 7.56506 1.99784 7.42931 2.08492 7.34216L7.35001 2.07631C7.35671 2.06961 7.36509 2.06458 7.37179 2.05788C7.45887 1.98917 7.57944 1.99587 7.65982 2.07631L9.75648 4.17293C10.0747 4.49136 10.5905 4.49136 10.907 4.17293V4.17293ZM5.75408 7.53489C5.75408 8.00694 5.94163 8.45966 6.27547 8.79345C6.60931 9.12724 7.0621 9.31476 7.53423 9.31476C8.00635 9.31476 8.45914 9.12724 8.79298 8.79345C9.12683 8.45966 9.31438 8.00694 9.31438 7.53489C9.31438 7.06285 9.12683 6.61013 8.79298 6.27634C8.45914 5.94255 8.00635 5.75503 7.53423 5.75503C7.0621 5.75503 6.60931 5.94255 6.27547 6.27634C5.94163 6.61013 5.75408 7.06285 5.75408 7.53489ZM14.7335 6.88798L12.6754 4.83829C12.3572 4.52153 11.8414 4.52153 11.5249 4.83996C11.4493 4.91533 11.3892 5.00491 11.3483 5.10356C11.3073 5.20221 11.2862 5.30799 11.2862 5.41481C11.2862 5.52164 11.3073 5.62742 11.3483 5.72606C11.3892 5.82471 11.4493 5.9143 11.5249 5.98967L12.9149 7.37903C13.002 7.46618 13.002 7.60193 12.9149 7.68908L11.545 9.05834C11.4694 9.13371 11.4093 9.22329 11.3684 9.32194C11.3274 9.42059 11.3063 9.52636 11.3063 9.63319C11.3063 9.74001 11.3274 9.84579 11.3684 9.94444C11.4093 10.0431 11.4694 10.1327 11.545 10.208C11.6978 10.3602 11.9047 10.4457 12.1202 10.4457C12.3358 10.4457 12.5427 10.3602 12.6955 10.208L14.7352 8.1684C14.8193 8.08432 14.886 7.98446 14.9314 7.87454C14.9768 7.76462 15.0002 7.6468 15 7.52784C14.9998 7.40889 14.9762 7.29113 14.9305 7.18133C14.8848 7.07153 14.8178 6.97184 14.7335 6.88798V6.88798Z" fill="white"/>
</svg>
